<?xml version="1.0" encoding="utf-8"?>
<!DOCTYPE svg PUBLIC "-//W3C//DTD SVG 1.0//EN" "http://www.w3.org/TR/2001/REC-SVG-20010904/DTD/svg10.dtd">
<svg version="1.0" xmlns="http://www.w3.org/2000/svg" width="256px" height="256px" viewBox="0 0 256 256" preserveAspectRatio="xMidYMid meet">
 <g fill="#ffffff">
  <path d="M5.9 253.5 c-1.4 -0.8 -3.2 -2.8 -3.9 -4.5 -1.2 -2.8 -0.6 -4.7 8.4 -28.8 l9.7 -25.8 -4 -7.5 c-24.3 -45.1 -17.6 -103 16.4 -141.6 42 -47.7 108.8 -57.6 163.3 -24.2 12 7.4 31.7 27.1 39.1 39.1 28 45.6 25.8 101 -5.7 143.5 -21.2 28.5 -54.4 47 -90.7 50.3 -18.4 1.8 -41.1 -1.6 -57.5 -8.5 l-5.8 -2.5 -33.1 6 c-18.3 3.3 -33.3 6 -33.4 6 -0.1 -0.1 -1.4 -0.7 -2.8 -1.5z m68.6 -107.6 c5.3 -1.5 11 -7.3 12.5 -12.8 5 -18.6 -17.6 -31.8 -31.1 -18.2 -9.8 9.8 -6.2 26 6.8 30.6 4.7 1.7 6.7 1.8 11.8 0.4z m59 0 c5.3 -1.5 11 -7.3 12.5 -12.8 5 -18.6 -17.6 -31.8 -31.1 -18.2 -9.8 9.8 -6.2 26 6.8 30.6 4.7 1.7 6.7 1.8 11.8 0.4z m59 0 c5.3 -1.5 11 -7.3 12.5 -12.8 5 -18.6 -17.6 -31.8 -31.1 -18.2 -9.8 9.8 -6.2 26 6.8 30.6 4.7 1.7 6.7 1.8 11.8 0.4z"/>
 </g>
</svg>